swing
nRows=4
nColumns=135

# SIMM Motion File Header:
name swing
datacolumns 135
datarows 4
otherdata 1
range 0.29999999999999999000 0.34999999999999998000
endheader
time	hip_angle_r	knee_angle_r	ankle_angle_r	pelvis_tilt	tib_tx_r	tib_ty_r	pat_angle_r	pat_tx_r	pat_ty_r	subtalar_angle_r	mtp_angle_r	R.ASIS_tx	R.ASIS_ty	R.ASIS_tz	L.ASIS_tx	L.ASIS_ty	L.ASIS_tz	V.Sacral_tx	V.Sacral_ty	V.Sacral_tz	R.Thigh.Upper_tx	R.Thigh.Upper_ty	R.Thigh.Upper_tz	R.Thigh.Front_tx	R.Thigh.Front_ty	R.Thigh.Front_tz	R.Thigh.Rear_tx	R.Thigh.Rear_ty	R.Thigh.Rear_tz	L.Thigh.Upper_tx	L.Thigh.Upper_ty	L.Thigh.Upper_tz	L.Thigh.Front_tx	L.Thigh.Front_ty	L.Thigh.Front_tz	L.Thigh.Rear_tx	L.Thigh.Rear_ty	L.Thigh.Rear_tz	R.Shank.Upper_tx	R.Shank.Upper_ty	R.Shank.Upper_tz	R.Shank.Front_tx	R.Shank.Front_ty	R.Shank.Front_tz	R.Shank.Rear_tx	R.Shank.Rear_ty	R.Shank.Rear_tz	L.Shank.Upper_tx	L.Shank.Upper_ty	L.Shank.Upper_tz	L.Shank.Front_tx	L.Shank.Front_ty	L.Shank.Front_tz	L.Shank.Rear_tx	L.Shank.Rear_ty	L.Shank.Rear_tz	R.Heel_tx	R.Heel_ty	R.Heel_tz	R.Midfoot.Sup_tx	R.Midfoot.Sup_ty	R.Midfoot.Sup_tz	R.Midfoot.Lat_tx	R.Midfoot.Lat_ty	R.Midfoot.Lat_tz	R.Toe.Tip_tx	R.Toe.Tip_ty	R.Toe.Tip_tz	L.Heel_tx	L.Heel_ty	L.Heel_tz	L.Midfoot.Sup_tx	L.Midfoot.Sup_ty	L.Midfoot.Sup_tz	L.Midfoot.Lat_tx	L.Midfoot.Lat_ty	L.Midfoot.Lat_tz	L.Toe.Tip_tx	L.Toe.Tip_ty	L.Toe.Tip_tz	Sternum_tx	Sternum_ty	Sternum_tz	R.Acromium_tx	R.Acromium_ty	R.Acromium_tz	L.Acromium_tx	L.Acromium_ty	L.Acromium_tz	R.Bicep_tx	R.Bicep_ty	R.Bicep_tz	L.Bicep_tx	L.Bicep_ty	L.Bicep_tz	R.Elbow_tx	R.Elbow_ty	R.Elbow_tz	L.Elbow_tx	L.Elbow_ty	L.Elbow_tz	R.Wrist.Med_tx	R.Wrist.Med_ty	R.Wrist.Med_tz	R.Wrist.Lat_tx	R.Wrist.Lat_ty	R.Wrist.Lat_tz	L.Wrist.Med_tx	L.Wrist.Med_ty	L.Wrist.Med_tz	L.Wrist.Lat_tx	L.Wrist.Lat_ty	L.Wrist.Lat_tz	R.Toe.Lat_tx	R.Toe.Lat_ty	R.Toe.Lat_tz	R.Toe.Med_tx	R.Toe.Med_ty	R.Toe.Med_tz	L.Toe.Lat_tx	L.Toe.Lat_ty	L.Toe.Lat_tz	L.Toe.Med_tx	L.Toe.Med_ty	L.Toe.Med_tz	R.Temple_tx	R.Temple_ty	R.Temple_tz	L.Temple_tx	L.Temple_ty	L.Temple_tz	Top.Head_tx	Top.Head_ty	Top.Head_tz
      0.29999999999999999000	     24.85198089469319900000	    -21.58466629737435800000	      6.75164674454905090000	      0.00000000000000000000	     -0.00080250542601255674	     -0.46692065289894646000	     14.02765100440820100000	      0.05241928103783320000	     -0.02454347437241500400	      0.00000000000000000000	      0.00000000000000000000	     -0.02600218470000000000	     -0.03177671520000000000	      0.12884442260000001000	     -0.02600218470000000000	     -0.03177671520000000000	     -0.13185390790000001000	     -0.22258738580000001000	     -0.03177671520000000000	      0.01515446279999999900	      0.03340317830000000300	     -0.33844476109999999000	      0.16336334350000001000	      0.11301729180000000000	     -0.36767996910000000000	      0.06868266480000000100	      0.07609624750000000500	     -0.45210794770000001000	      0.15282214370000000000	     -0.13325677310000000000	     -0.32202313410000000000	     -0.19028390780000001000	     -0.04791045449999999800	     -0.37667760099999997000	     -0.13138270310000000000	     -0.15411747200000001000	     -0.43034360970000002000	     -0.17613422710000001000	      0.05490067560000000400	     -0.62701761239999998000	      0.12684560430000000000	      0.14129761480000000000	     -0.64865846139999994000	      0.08143277120000000400	      0.08044749029999999400	     -0.71098008140000002000	      0.13135121010000000000	     -0.21490243500000000000	     -0.64150014659999999000	     -0.17708758390000001000	     -0.17316983780000000000	     -0.69995485660000001000	     -0.12757333409999999000	     -0.24135906220000003000	     -0.68040065240000003000	     -0.18412357410000002000	      0.05778171819999999800	     -1.02089700200000010000	      0.01801756110000000300	      0.19973005450000000000	     -0.98758097369999998000	      0.01275741730000000100	      0.18064177789999999000	     -1.02061042600000000000	      0.11224735970000001000	      0.33779231270000004000	     -1.00249870000000010000	      0.07416076669999999100	     -0.35909088290000002000	     -1.00747956700000010000	     -0.09803439490000000200	     -0.19542169800000000000	     -1.01569299699999990000	     -0.10373514920000000000	     -0.20250885880000002000	     -1.02826927600000010000	     -0.17496754130000000000	     -0.07921701330000000000	     -1.03999500600000010000	     -0.11139083800000001000	      0.00565164420000000000	      0.27869721950000004000	      0.01318450020000000100	     -0.10177149800000000000	      0.35476822829999999000	      0.22538060380000000000	     -0.05486439950000000100	      0.40418270690000002000	     -0.18664798920000000000	     -0.12606106789999999000	      0.15653750570000000000	      0.25845227310000002000	     -0.00546239879999999970	      0.17425739580000002000	     -0.22798557320000001000	     -0.18778272939999999000	      0.06100231700000000000	      0.27805397340000004000	     -0.03244999860000000200	      0.07152377120000000300	     -0.27536915950000002000	     -0.07691904639999999600	     -0.18521774750000000000	      0.26974946399999999000	     -0.12463128490000000000	     -0.19713573679999999000	      0.31450312819999998000	      0.15727277500000000000	     -0.08161211549999999900	     -0.20150715220000001000	      0.12909604580000000000	     -0.11552236569999999000	     -0.26311205380000002000	      0.26670790729999999000	     -1.03723654600000010000	      0.13894800450000000000	      0.28950136640000002000	     -1.00885105800000010000	      0.03521739600000000500	     -0.14645569729999999000	     -1.04008278500000010000	     -0.18595329160000001000	     -0.12793523270000001000	     -1.03998121999999980000	     -0.08482248219999999300	      0.06776165870000000500	      0.50403249340000000000	      0.11476052410000000000	      0.07993355200000000500	      0.52088502479999998000	     -0.02283889650000000100	      0.05220613290000000000	      0.68441241370000006000	      0.06769472510000000600
      0.31666666700000001000	     24.31262087571976900000	    -15.39908909806988800000	      7.27507490498542090000	      0.00000000000000000000	     -0.00233106688916624900	     -0.46610893364213385000	     12.00925404035307900000	      0.05346907151892590900	     -0.02479732816249504900	      0.00000000000000000000	      0.00000000000000000000	     -0.02586406709999999900	     -0.03189644030000000200	      0.12890416800000001000	     -0.02586406709999999900	     -0.03189644030000000200	     -0.13159089040000002000	     -0.22234400009999999000	     -0.03189644030000000200	      0.01543961800000000000	      0.03137480620000000100	     -0.33952268740000002000	      0.16401629109999999000	      0.10762190730000000000	     -0.37149300149999998000	      0.06723559109999999200	      0.07075046420000000200	     -0.45397260790000005000	      0.15402795159999999000	     -0.13723015000000002000	     -0.32112572290000002000	     -0.18827701490000001000	     -0.05205640240000000700	     -0.37610345750000002000	     -0.12953109779999999000	     -0.16010316810000000000	     -0.42832363790000000000	     -0.17384321080000001000	      0.05948730370000000100	     -0.63015623030000001000	      0.12873379250000000000	      0.14756352340000001000	     -0.64440678149999997000	      0.08200903730000000400	      0.09211627529999999500	     -0.71183724979999996000	      0.13377619360000001000	     -0.22446610519999999000	     -0.63872100710000002000	     -0.17384471160000001000	     -0.18328056360000000000	     -0.69743891320000007000	     -0.12421629330000000000	     -0.25195586860000002000	     -0.67775021589999995000	     -0.18072350030000001000	      0.10079031070000001000	     -1.02512569200000000000	      0.02540945270000000100	      0.23831543070000002000	     -0.97731472240000006000	      0.01751379680000000200	      0.22385345960000000000	     -1.01059848800000010000	      0.11797745460000000000	      0.37776928720000003000	     -0.97682264190000001000	      0.07744998710000000600	     -0.37282054170000001000	     -1.00471493399999990000	     -0.09227688440000000900	     -0.20578969789999998000	     -1.01256732000000000000	     -0.08466879260000000100	     -0.21970240930000001000	     -1.01971633700000000000	     -0.16894042350000002000	     -0.09324674830000000100	     -1.03739823900000010000	     -0.10564644280000000000	      0.00423575160000000050	      0.27759877870000005000	      0.01408294660000000000	     -0.10327274420000000000	      0.35537026420000001000	      0.22396570520000000000	     -0.05591157249999999900	      0.40384512569999997000	     -0.18820825360000001000	     -0.12669261109999999000	      0.15703607270000000000	      0.25822559880000001000	     -0.00721716310000000000	      0.17352260759999999000	     -0.22798044010000001000	     -0.18839994469999999000	      0.06145439400000000200	      0.27766530449999999000	     -0.03283685599999999800	      0.07017912160000000500	     -0.27561547130000003000	     -0.07647989870000000700	     -0.18410712269999999000	      0.27049798370000000000	     -0.12383333160000000000	     -0.19618149620000000000	      0.31392055149999998000	      0.15930633700000002000	     -0.07727821760000000400	     -0.19891472130000001000	      0.13046009259999999000	     -0.11240362390000000000	     -0.25900943210000005000	      0.31307093739999997000	     -1.01839615500000000000	      0.14441519850000001000	      0.33010639470000003000	     -0.98823618080000009000	      0.03905352370000000200	     -0.16040509729999999000	     -1.03823001400000000000	     -0.18025853179999998000	     -0.14182394370000001000	     -1.03728462900000000000	     -0.07898602720000000300	      0.06600062810000000000	      0.50581974620000003000	      0.11333357920000001000	      0.07709183649999999700	      0.52305921760000007000	     -0.02420132630000000300	      0.04642736949999999600	      0.68576187890000007000	      0.06642939070000000700
      0.33333333300000001000	     23.57020869994036600000	     -9.64617026068803440000	      7.64140661252222490000	      0.00000000000000000000	     -0.00371546999915053350	     -0.46548522551521332000	      8.90744532260002590000	      0.05445391789662054600	     -0.02507959683678339200	      0.00000000000000000000	      0.00000000000000000000	     -0.02578774749999999900	     -0.03195883270000000200	      0.12875038540000000000	     -0.02578774749999999900	     -0.03195883270000000200	     -0.13140563110000000000	     -0.22234761340000000000	     -0.03195883270000000200	      0.01461063550000000200	      0.02678056940000000200	     -0.34173545420000001000	      0.16396763670000003000	      0.10042265510000001000	     -0.37524109950000001000	      0.06559674210000000800	      0.06561095179999999700	     -0.45690076900000004000	      0.15235296940000001000	     -0.14118023420000000000	     -0.31970674550000000000	     -0.18802080570000002000	     -0.05733694260000000300	     -0.37607969460000001000	     -0.13046119820000002000	     -0.16612742030000002000	     -0.42701374489999999000	     -0.17313766370000000000	      0.06181040170000000300	     -0.63406297370000009000	      0.12999795130000003000	      0.15050542279999998000	     -0.64017179839999994000	      0.08240914609999999700	      0.10116068600000000000	     -0.71088204160000001000	      0.13537121769999999000	     -0.23468656979999999000	     -0.63565736600000000000	     -0.17315625230000001000	     -0.19259994599999999000	     -0.69468414299999992000	     -0.12563326450000001000	     -0.26301945069999999000	     -0.67427671620000007000	     -0.17987302220000001000	      0.13647370989999999000	     -1.02634020200000010000	      0.03184718880000000200	      0.26899571570000003000	     -0.96608230140000007000	      0.02065856129999999900	      0.25924339320000001000	     -0.99877801230000007000	      0.12212920120000000000	      0.40884448770000004000	     -0.95131800910000008000	      0.07836915949999999400	     -0.38867419500000000000	     -1.00100871400000010000	     -0.09039469010000000800	     -0.21916571609999999000	     -1.00884139799999990000	     -0.07235684089999999700	     -0.23739977709999999000	     -1.01245011099999990000	     -0.16637726440000000000	     -0.10950381650000000000	     -1.03473994500000010000	     -0.10239572599999999000	      0.00401038930000000020	      0.27740864350000000000	      0.01343907620000000000	     -0.10504712230000000000	      0.35501377760000002000	      0.22345395970000001000	     -0.05490972620000000200	      0.40331457050000002000	     -0.18856977000000000000	     -0.12943510570000000000	      0.15638468130000002000	      0.25751544109999996000	     -0.00536244559999999970	      0.17338403850000000000	     -0.22882651509999999000	     -0.18995889410000003000	      0.06132206479999999900	      0.27642475059999999000	     -0.03142755109999999900	      0.06981213289999999000	     -0.27608465269999999000	     -0.07725028290000000900	     -0.18410560170000001000	      0.26973982320000001000	     -0.12394451360000000000	     -0.19653834019999999000	      0.31343048309999999000	      0.16505571740000000000	     -0.07294445239999999800	     -0.19714691840000001000	      0.13397463909999999000	     -0.11002854340000001000	     -0.25678508240000003000	      0.35025792420000001000	     -0.99776016790000011000	      0.14660454060000000000	      0.36211498540000003000	     -0.96724439900000003000	      0.04061758429999999500	     -0.17635690460000000000	     -1.03619168100000000000	     -0.17757705830000001000	     -0.15806967920000001000	     -1.03445479099999990000	     -0.07601327050000000800	      0.06406778760000000900	      0.50724037210000006000	      0.11275672850000000000	      0.07697992960000001100	      0.52373065399999996000	     -0.02395016229999999800	      0.04159018820000000300	      0.68686624700000010000	      0.06532016790000000400
      0.34999999999999998000	     22.82948953632080300000	     -4.82075482728864200000	      8.05246453187657530000	      0.00000000000000000000	     -0.00461852731942364710	     -0.46502158292639750000	      5.09534142531696870000	      0.05532005375148955900	     -0.02536468221480854200	      0.00000000000000000000	      0.00000000000000000000	     -0.02573021760000000100	     -0.03200169600000000300	      0.12900888259999999000	     -0.02573021760000000100	     -0.03200169600000000300	     -0.13182657610000001000	     -0.22284829990000002000	     -0.03200169600000000300	      0.01387184430000000000	      0.02348740700000000200	     -0.34340620370000002000	      0.16304309780000001000	      0.09447920259999999200	     -0.37809132549999996000	      0.06347144329999999900	      0.05975914749999999800	     -0.45902882379999999000	      0.15337926200000002000	     -0.14497277170000000000	     -0.31798795419999998000	     -0.18809546470000002000	     -0.06104569120000000200	     -0.37604208480000001000	     -0.13121245619999999000	     -0.17175232710000002000	     -0.42444464479999999000	     -0.17332870719999999000	      0.06245238570000000200	     -0.63605855770000008000	      0.13073472019999999000	      0.15116088180000001000	     -0.63706532040000008000	      0.08432410890000000000	      0.10760530650000000000	     -0.71056152680000007000	      0.13790775720000001000	     -0.24462863350000000000	     -0.63230968489999995000	     -0.17331766790000000000	     -0.20640529690000001000	     -0.69315120029999999000	     -0.12378793200000000000	     -0.27372960680000002000	     -0.67028737630000002000	     -0.17995757530000001000	      0.16436611360000000000	     -1.02521792200000020000	      0.03830419620000000100	      0.29202984390000003000	     -0.95502631319999998000	      0.02390557780000000100	      0.28650783240000000000	     -0.98650030690000012000	      0.12632287460000000000	      0.43156172479999999000	     -0.92790811770000003000	      0.07923554099999999300	     -0.40558300880000003000	     -0.99663552119999999000	     -0.09040501650000000400	     -0.23487491030000002000	     -1.00483314499999990000	     -0.06649693670000000900	     -0.25443212840000001000	     -1.00740152400000000000	     -0.16518377090000003000	     -0.12679718740000001000	     -1.03199673000000010000	     -0.09988417280000000400	      0.00246788530000000010	      0.27732168710000005000	      0.01452127470000000000	     -0.10777781280000001000	      0.35497326460000000000	      0.22283124830000001000	     -0.05377894900000000000	      0.40280217509999999000	     -0.18819518199999999000	     -0.13109770710000002000	      0.15638987100000001000	      0.25705681110000000000	     -0.00457212570000000050	      0.17256517969999999000	     -0.22896271190000000000	     -0.19256308680000001000	      0.06087788520000000200	      0.27540228480000001000	     -0.03052280210000000000	      0.06934759190000000500	     -0.27626955360000000000	     -0.07872463440000000700	     -0.18437429340000000000	      0.26892593449999996000	     -0.12612823380000002000	     -0.19610109910000001000	      0.31340134669999997000	      0.16604288990000002000	     -0.07058476829999998900	     -0.19484096080000002000	      0.13981282150000002000	     -0.10839017190000000000	     -0.25585640849999997000	      0.37723078920000003000	     -0.97467212110000001000	      0.14938958280000000000	      0.38603960339999999000	     -0.94762893890000000000	      0.04203587510000000200	     -0.19340346919999998000	     -1.03413377700000010000	     -0.17592702809999999000	     -0.17546787629999999000	     -1.03152422700000020000	     -0.07413167049999999600	      0.06140549970000000500	      0.50893550349999994000	      0.11437260190000001000	      0.07499634150000000800	      0.52502019600000005000	     -0.02266261290000000000	      0.03754574389999999800	      0.68789420970000004000	      0.06606465250000000100
